<mxfile host="app.diagrams.net" agent="Mozilla/5.0 (Windows NT 10.0; Win64; x64) AppleWebKit/537.36 (KHTML, like Gecko) Chrome/133.0.0.0 Safari/537.36" version="26.0.16">
  <diagram id="C5RBs43oDa-KdzZeNtuy" name="Page-1">
    <mxGraphModel dx="1444" dy="1929" grid="1" gridSize="10" guides="1" tooltips="1" connect="1" arrows="1" fold="1" page="1" pageScale="1" pageWidth="827" pageHeight="1169" math="0" shadow="0">
      <root>
        <mxCell id="WIyWlLk6GJQsqaUBKTNV-0" />
        <mxCell id="WIyWlLk6GJQsqaUBKTNV-1" parent="WIyWlLk6GJQsqaUBKTNV-0" />
        <mxCell id="Dwi1AQAxIS6kbioLr0zU-106" value="" style="rounded=0;whiteSpace=wrap;html=1;fillColor=#dae8fc;strokeColor=#6c8ebf;" vertex="1" parent="WIyWlLk6GJQsqaUBKTNV-1">
          <mxGeometry x="930" y="80" width="170" height="60" as="geometry" />
        </mxCell>
        <mxCell id="Dwi1AQAxIS6kbioLr0zU-105" value="" style="rounded=0;whiteSpace=wrap;html=1;fillColor=#f8cecc;strokeColor=#b85450;" vertex="1" parent="WIyWlLk6GJQsqaUBKTNV-1">
          <mxGeometry x="980" y="220" width="410" height="50" as="geometry" />
        </mxCell>
        <mxCell id="Dwi1AQAxIS6kbioLr0zU-104" value="" style="rounded=0;whiteSpace=wrap;html=1;fillColor=#d5e8d4;strokeColor=#82b366;" vertex="1" parent="WIyWlLk6GJQsqaUBKTNV-1">
          <mxGeometry x="1180" y="130" width="180" height="50" as="geometry" />
        </mxCell>
        <mxCell id="Dwi1AQAxIS6kbioLr0zU-0" value="&lt;i&gt;Car&lt;/i&gt;" style="swimlane;fontStyle=1;align=center;verticalAlign=top;childLayout=stackLayout;horizontal=1;startSize=26;horizontalStack=0;resizeParent=1;resizeParentMax=0;resizeLast=0;collapsible=1;marginBottom=0;whiteSpace=wrap;html=1;" vertex="1" parent="WIyWlLk6GJQsqaUBKTNV-1">
          <mxGeometry x="254" y="130" width="160" height="34" as="geometry" />
        </mxCell>
        <mxCell id="Dwi1AQAxIS6kbioLr0zU-2" value="" style="line;strokeWidth=1;fillColor=none;align=left;verticalAlign=middle;spacingTop=-1;spacingLeft=3;spacingRight=3;rotatable=0;labelPosition=right;points=[];portConstraint=eastwest;strokeColor=inherit;" vertex="1" parent="Dwi1AQAxIS6kbioLr0zU-0">
          <mxGeometry y="26" width="160" height="8" as="geometry" />
        </mxCell>
        <mxCell id="Dwi1AQAxIS6kbioLr0zU-4" value="Volvo240" style="swimlane;fontStyle=1;align=center;verticalAlign=top;childLayout=stackLayout;horizontal=1;startSize=26;horizontalStack=0;resizeParent=1;resizeParentMax=0;resizeLast=0;collapsible=1;marginBottom=0;whiteSpace=wrap;html=1;" vertex="1" parent="WIyWlLk6GJQsqaUBKTNV-1">
          <mxGeometry x="180" y="280" width="160" height="34" as="geometry" />
        </mxCell>
        <mxCell id="Dwi1AQAxIS6kbioLr0zU-5" value="" style="line;strokeWidth=1;fillColor=none;align=left;verticalAlign=middle;spacingTop=-1;spacingLeft=3;spacingRight=3;rotatable=0;labelPosition=right;points=[];portConstraint=eastwest;strokeColor=inherit;" vertex="1" parent="Dwi1AQAxIS6kbioLr0zU-4">
          <mxGeometry y="26" width="160" height="8" as="geometry" />
        </mxCell>
        <mxCell id="Dwi1AQAxIS6kbioLr0zU-6" value="Saab95" style="swimlane;fontStyle=1;align=center;verticalAlign=top;childLayout=stackLayout;horizontal=1;startSize=26;horizontalStack=0;resizeParent=1;resizeParentMax=0;resizeLast=0;collapsible=1;marginBottom=0;whiteSpace=wrap;html=1;" vertex="1" parent="WIyWlLk6GJQsqaUBKTNV-1">
          <mxGeometry y="280" width="160" height="34" as="geometry" />
        </mxCell>
        <mxCell id="Dwi1AQAxIS6kbioLr0zU-7" value="" style="line;strokeWidth=1;fillColor=none;align=left;verticalAlign=middle;spacingTop=-1;spacingLeft=3;spacingRight=3;rotatable=0;labelPosition=right;points=[];portConstraint=eastwest;strokeColor=inherit;" vertex="1" parent="Dwi1AQAxIS6kbioLr0zU-6">
          <mxGeometry y="26" width="160" height="8" as="geometry" />
        </mxCell>
        <mxCell id="Dwi1AQAxIS6kbioLr0zU-8" value="&lt;i style=&quot;&quot;&gt;Truck&lt;/i&gt;" style="swimlane;fontStyle=1;align=center;verticalAlign=top;childLayout=stackLayout;horizontal=1;startSize=26;horizontalStack=0;resizeParent=1;resizeParentMax=0;resizeLast=0;collapsible=1;marginBottom=0;whiteSpace=wrap;html=1;" vertex="1" parent="WIyWlLk6GJQsqaUBKTNV-1">
          <mxGeometry x="400" y="280" width="160" height="34" as="geometry" />
        </mxCell>
        <mxCell id="Dwi1AQAxIS6kbioLr0zU-9" value="" style="line;strokeWidth=1;fillColor=none;align=left;verticalAlign=middle;spacingTop=-1;spacingLeft=3;spacingRight=3;rotatable=0;labelPosition=right;points=[];portConstraint=eastwest;strokeColor=inherit;" vertex="1" parent="Dwi1AQAxIS6kbioLr0zU-8">
          <mxGeometry y="26" width="160" height="8" as="geometry" />
        </mxCell>
        <mxCell id="Dwi1AQAxIS6kbioLr0zU-10" value="Carrier" style="swimlane;fontStyle=1;align=center;verticalAlign=top;childLayout=stackLayout;horizontal=1;startSize=26;horizontalStack=0;resizeParent=1;resizeParentMax=0;resizeLast=0;collapsible=1;marginBottom=0;whiteSpace=wrap;html=1;" vertex="1" parent="WIyWlLk6GJQsqaUBKTNV-1">
          <mxGeometry x="660" y="174" width="160" height="34" as="geometry" />
        </mxCell>
        <mxCell id="Dwi1AQAxIS6kbioLr0zU-11" value="" style="line;strokeWidth=1;fillColor=none;align=left;verticalAlign=middle;spacingTop=-1;spacingLeft=3;spacingRight=3;rotatable=0;labelPosition=right;points=[];portConstraint=eastwest;strokeColor=inherit;" vertex="1" parent="Dwi1AQAxIS6kbioLr0zU-10">
          <mxGeometry y="26" width="160" height="8" as="geometry" />
        </mxCell>
        <mxCell id="Dwi1AQAxIS6kbioLr0zU-12" value="«interface»&lt;br&gt;&lt;b&gt;Movable&lt;/b&gt;" style="html=1;whiteSpace=wrap;" vertex="1" parent="WIyWlLk6GJQsqaUBKTNV-1">
          <mxGeometry x="240" width="110" height="50" as="geometry" />
        </mxCell>
        <mxCell id="Dwi1AQAxIS6kbioLr0zU-13" value="CarCarrier" style="swimlane;fontStyle=1;align=center;verticalAlign=top;childLayout=stackLayout;horizontal=1;startSize=26;horizontalStack=0;resizeParent=1;resizeParentMax=0;resizeLast=0;collapsible=1;marginBottom=0;whiteSpace=wrap;html=1;" vertex="1" parent="WIyWlLk6GJQsqaUBKTNV-1">
          <mxGeometry x="620" y="400" width="160" height="34" as="geometry" />
        </mxCell>
        <mxCell id="Dwi1AQAxIS6kbioLr0zU-14" value="" style="line;strokeWidth=1;fillColor=none;align=left;verticalAlign=middle;spacingTop=-1;spacingLeft=3;spacingRight=3;rotatable=0;labelPosition=right;points=[];portConstraint=eastwest;strokeColor=inherit;" vertex="1" parent="Dwi1AQAxIS6kbioLr0zU-13">
          <mxGeometry y="26" width="160" height="8" as="geometry" />
        </mxCell>
        <mxCell id="Dwi1AQAxIS6kbioLr0zU-16" value="Scania" style="swimlane;fontStyle=1;align=center;verticalAlign=top;childLayout=stackLayout;horizontal=1;startSize=26;horizontalStack=0;resizeParent=1;resizeParentMax=0;resizeLast=0;collapsible=1;marginBottom=0;whiteSpace=wrap;html=1;" vertex="1" parent="WIyWlLk6GJQsqaUBKTNV-1">
          <mxGeometry x="400" y="400" width="160" height="34" as="geometry" />
        </mxCell>
        <mxCell id="Dwi1AQAxIS6kbioLr0zU-17" value="" style="line;strokeWidth=1;fillColor=none;align=left;verticalAlign=middle;spacingTop=-1;spacingLeft=3;spacingRight=3;rotatable=0;labelPosition=right;points=[];portConstraint=eastwest;strokeColor=inherit;" vertex="1" parent="Dwi1AQAxIS6kbioLr0zU-16">
          <mxGeometry y="26" width="160" height="8" as="geometry" />
        </mxCell>
        <mxCell id="Dwi1AQAxIS6kbioLr0zU-20" value="1" style="endArrow=open;html=1;endSize=12;startArrow=diamondThin;startSize=14;startFill=1;edgeStyle=orthogonalEdgeStyle;align=left;verticalAlign=bottom;rounded=0;exitX=0;exitY=0.5;exitDx=0;exitDy=0;entryX=1;entryY=0.5;entryDx=0;entryDy=0;" edge="1" parent="WIyWlLk6GJQsqaUBKTNV-1" source="Dwi1AQAxIS6kbioLr0zU-10" target="Dwi1AQAxIS6kbioLr0zU-0">
          <mxGeometry x="-1" y="3" relative="1" as="geometry">
            <mxPoint x="320" y="300" as="sourcePoint" />
            <mxPoint x="560" y="297" as="targetPoint" />
          </mxGeometry>
        </mxCell>
        <mxCell id="Dwi1AQAxIS6kbioLr0zU-22" value="1" style="endArrow=open;html=1;endSize=12;startArrow=diamondThin;startSize=14;startFill=1;edgeStyle=orthogonalEdgeStyle;align=left;verticalAlign=bottom;rounded=0;exitX=0.5;exitY=0;exitDx=0;exitDy=0;entryX=0.5;entryY=1;entryDx=0;entryDy=0;" edge="1" parent="WIyWlLk6GJQsqaUBKTNV-1" source="Dwi1AQAxIS6kbioLr0zU-13" target="Dwi1AQAxIS6kbioLr0zU-10">
          <mxGeometry x="-1" y="3" relative="1" as="geometry">
            <mxPoint x="320" y="300" as="sourcePoint" />
            <mxPoint x="780" y="220" as="targetPoint" />
            <Array as="points">
              <mxPoint x="700" y="330" />
              <mxPoint x="740" y="330" />
            </Array>
          </mxGeometry>
        </mxCell>
        <mxCell id="Dwi1AQAxIS6kbioLr0zU-24" value="Extends" style="endArrow=block;endSize=16;endFill=0;html=1;rounded=0;exitX=0.5;exitY=0;exitDx=0;exitDy=0;entryX=0.5;entryY=1;entryDx=0;entryDy=0;" edge="1" parent="WIyWlLk6GJQsqaUBKTNV-1" source="Dwi1AQAxIS6kbioLr0zU-4" target="Dwi1AQAxIS6kbioLr0zU-0">
          <mxGeometry width="160" relative="1" as="geometry">
            <mxPoint x="320" y="300" as="sourcePoint" />
            <mxPoint x="480" y="300" as="targetPoint" />
            <Array as="points">
              <mxPoint x="260" y="200" />
              <mxPoint x="334" y="200" />
            </Array>
          </mxGeometry>
        </mxCell>
        <mxCell id="Dwi1AQAxIS6kbioLr0zU-25" value="Extends" style="endArrow=block;endSize=16;endFill=0;html=1;rounded=0;exitX=0.5;exitY=0;exitDx=0;exitDy=0;entryX=0.5;entryY=1;entryDx=0;entryDy=0;" edge="1" parent="WIyWlLk6GJQsqaUBKTNV-1" source="Dwi1AQAxIS6kbioLr0zU-6" target="Dwi1AQAxIS6kbioLr0zU-0">
          <mxGeometry width="160" relative="1" as="geometry">
            <mxPoint x="320" y="300" as="sourcePoint" />
            <mxPoint x="480" y="300" as="targetPoint" />
            <Array as="points">
              <mxPoint x="80" y="200" />
              <mxPoint x="334" y="200" />
            </Array>
          </mxGeometry>
        </mxCell>
        <mxCell id="Dwi1AQAxIS6kbioLr0zU-26" value="Extends" style="endArrow=block;endSize=16;endFill=0;html=1;rounded=0;entryX=0.5;entryY=1;entryDx=0;entryDy=0;exitX=0.5;exitY=0;exitDx=0;exitDy=0;" edge="1" parent="WIyWlLk6GJQsqaUBKTNV-1" source="Dwi1AQAxIS6kbioLr0zU-8" target="Dwi1AQAxIS6kbioLr0zU-0">
          <mxGeometry width="160" relative="1" as="geometry">
            <mxPoint x="480" y="270" as="sourcePoint" />
            <mxPoint x="480" y="300" as="targetPoint" />
            <Array as="points">
              <mxPoint x="480" y="200" />
              <mxPoint x="334" y="200" />
            </Array>
          </mxGeometry>
        </mxCell>
        <mxCell id="Dwi1AQAxIS6kbioLr0zU-27" value="Extends" style="endArrow=block;endSize=16;endFill=0;html=1;rounded=0;exitX=0.5;exitY=0;exitDx=0;exitDy=0;" edge="1" parent="WIyWlLk6GJQsqaUBKTNV-1" source="Dwi1AQAxIS6kbioLr0zU-16" target="Dwi1AQAxIS6kbioLr0zU-9">
          <mxGeometry width="160" relative="1" as="geometry">
            <mxPoint x="340" y="380" as="sourcePoint" />
            <mxPoint x="482" y="310" as="targetPoint" />
          </mxGeometry>
        </mxCell>
        <mxCell id="Dwi1AQAxIS6kbioLr0zU-28" value="" style="endArrow=block;dashed=1;endFill=0;endSize=12;html=1;rounded=0;exitX=0.25;exitY=0;exitDx=0;exitDy=0;entryX=0.5;entryY=1;entryDx=0;entryDy=0;" edge="1" parent="WIyWlLk6GJQsqaUBKTNV-1" source="Dwi1AQAxIS6kbioLr0zU-0" target="Dwi1AQAxIS6kbioLr0zU-12">
          <mxGeometry width="160" relative="1" as="geometry">
            <mxPoint x="320" y="300" as="sourcePoint" />
            <mxPoint x="480" y="300" as="targetPoint" />
          </mxGeometry>
        </mxCell>
        <mxCell id="Dwi1AQAxIS6kbioLr0zU-30" value="Workshop" style="swimlane;fontStyle=1;align=center;verticalAlign=top;childLayout=stackLayout;horizontal=1;startSize=26;horizontalStack=0;resizeParent=1;resizeParentMax=0;resizeLast=0;collapsible=1;marginBottom=0;whiteSpace=wrap;html=1;" vertex="1" parent="WIyWlLk6GJQsqaUBKTNV-1">
          <mxGeometry x="810" y="320" width="160" height="34" as="geometry" />
        </mxCell>
        <mxCell id="Dwi1AQAxIS6kbioLr0zU-31" value="" style="line;strokeWidth=1;fillColor=none;align=left;verticalAlign=middle;spacingTop=-1;spacingLeft=3;spacingRight=3;rotatable=0;labelPosition=right;points=[];portConstraint=eastwest;strokeColor=inherit;" vertex="1" parent="Dwi1AQAxIS6kbioLr0zU-30">
          <mxGeometry y="26" width="160" height="8" as="geometry" />
        </mxCell>
        <mxCell id="Dwi1AQAxIS6kbioLr0zU-33" value="CarModel" style="swimlane;fontStyle=1;align=center;verticalAlign=top;childLayout=stackLayout;horizontal=1;startSize=26;horizontalStack=0;resizeParent=1;resizeParentMax=0;resizeLast=0;collapsible=1;marginBottom=0;whiteSpace=wrap;html=1;" vertex="1" parent="WIyWlLk6GJQsqaUBKTNV-1">
          <mxGeometry x="940" y="96" width="150" height="34" as="geometry" />
        </mxCell>
        <mxCell id="Dwi1AQAxIS6kbioLr0zU-34" value="" style="line;strokeWidth=1;fillColor=none;align=left;verticalAlign=middle;spacingTop=-1;spacingLeft=3;spacingRight=3;rotatable=0;labelPosition=right;points=[];portConstraint=eastwest;strokeColor=inherit;" vertex="1" parent="Dwi1AQAxIS6kbioLr0zU-33">
          <mxGeometry y="26" width="150" height="8" as="geometry" />
        </mxCell>
        <mxCell id="Dwi1AQAxIS6kbioLr0zU-35" value="Extends" style="endArrow=block;endSize=16;endFill=0;html=1;rounded=0;exitX=0.25;exitY=0;exitDx=0;exitDy=0;" edge="1" parent="WIyWlLk6GJQsqaUBKTNV-1" source="Dwi1AQAxIS6kbioLr0zU-13" target="Dwi1AQAxIS6kbioLr0zU-9">
          <mxGeometry width="160" relative="1" as="geometry">
            <mxPoint x="550" y="290" as="sourcePoint" />
            <mxPoint x="520" y="330" as="targetPoint" />
            <Array as="points">
              <mxPoint x="660" y="360" />
              <mxPoint x="480" y="360" />
            </Array>
          </mxGeometry>
        </mxCell>
        <mxCell id="Dwi1AQAxIS6kbioLr0zU-42" value="1" style="endArrow=open;html=1;endSize=12;startArrow=diamondThin;startSize=14;startFill=1;edgeStyle=orthogonalEdgeStyle;align=left;verticalAlign=bottom;rounded=0;exitX=0;exitY=0.5;exitDx=0;exitDy=0;entryX=0.5;entryY=1;entryDx=0;entryDy=0;" edge="1" parent="WIyWlLk6GJQsqaUBKTNV-1" source="Dwi1AQAxIS6kbioLr0zU-30" target="Dwi1AQAxIS6kbioLr0zU-10">
          <mxGeometry x="-1" y="3" relative="1" as="geometry">
            <mxPoint x="550" y="290" as="sourcePoint" />
            <mxPoint x="810" y="180" as="targetPoint" />
            <Array as="points">
              <mxPoint x="810" y="330" />
              <mxPoint x="740" y="330" />
            </Array>
          </mxGeometry>
        </mxCell>
        <mxCell id="Dwi1AQAxIS6kbioLr0zU-43" value="CarView" style="swimlane;fontStyle=1;align=center;verticalAlign=top;childLayout=stackLayout;horizontal=1;startSize=26;horizontalStack=0;resizeParent=1;resizeParentMax=0;resizeLast=0;collapsible=1;marginBottom=0;whiteSpace=wrap;html=1;" vertex="1" parent="WIyWlLk6GJQsqaUBKTNV-1">
          <mxGeometry x="990" y="230" width="160" height="34" as="geometry" />
        </mxCell>
        <mxCell id="Dwi1AQAxIS6kbioLr0zU-44" value="" style="line;strokeWidth=1;fillColor=none;align=left;verticalAlign=middle;spacingTop=-1;spacingLeft=3;spacingRight=3;rotatable=0;labelPosition=right;points=[];portConstraint=eastwest;strokeColor=inherit;" vertex="1" parent="Dwi1AQAxIS6kbioLr0zU-43">
          <mxGeometry y="26" width="160" height="8" as="geometry" />
        </mxCell>
        <mxCell id="Dwi1AQAxIS6kbioLr0zU-45" value="DrawPanel" style="swimlane;fontStyle=1;align=center;verticalAlign=top;childLayout=stackLayout;horizontal=1;startSize=26;horizontalStack=0;resizeParent=1;resizeParentMax=0;resizeLast=0;collapsible=1;marginBottom=0;whiteSpace=wrap;html=1;" vertex="1" parent="WIyWlLk6GJQsqaUBKTNV-1">
          <mxGeometry x="1220" y="230" width="160" height="34" as="geometry" />
        </mxCell>
        <mxCell id="Dwi1AQAxIS6kbioLr0zU-46" value="" style="line;strokeWidth=1;fillColor=none;align=left;verticalAlign=middle;spacingTop=-1;spacingLeft=3;spacingRight=3;rotatable=0;labelPosition=right;points=[];portConstraint=eastwest;strokeColor=inherit;" vertex="1" parent="Dwi1AQAxIS6kbioLr0zU-45">
          <mxGeometry y="26" width="160" height="8" as="geometry" />
        </mxCell>
        <mxCell id="Dwi1AQAxIS6kbioLr0zU-50" value="1" style="endArrow=open;html=1;endSize=12;startArrow=diamondThin;startSize=14;startFill=1;edgeStyle=orthogonalEdgeStyle;align=left;verticalAlign=bottom;rounded=0;exitX=1;exitY=0.5;exitDx=0;exitDy=0;entryX=0;entryY=0.5;entryDx=0;entryDy=0;" edge="1" parent="WIyWlLk6GJQsqaUBKTNV-1" source="Dwi1AQAxIS6kbioLr0zU-43" target="Dwi1AQAxIS6kbioLr0zU-45">
          <mxGeometry x="-1" y="3" relative="1" as="geometry">
            <mxPoint x="990" y="280" as="sourcePoint" />
            <mxPoint x="1150" y="280" as="targetPoint" />
          </mxGeometry>
        </mxCell>
        <mxCell id="Dwi1AQAxIS6kbioLr0zU-51" value="1" style="endArrow=open;html=1;endSize=12;startArrow=diamondThin;startSize=14;startFill=1;edgeStyle=orthogonalEdgeStyle;align=left;verticalAlign=bottom;rounded=0;exitX=0;exitY=0.25;exitDx=0;exitDy=0;entryX=0.75;entryY=0;entryDx=0;entryDy=0;" edge="1" parent="WIyWlLk6GJQsqaUBKTNV-1" source="Dwi1AQAxIS6kbioLr0zU-33" target="Dwi1AQAxIS6kbioLr0zU-0">
          <mxGeometry x="-1" y="3" relative="1" as="geometry">
            <mxPoint x="710" y="200" as="sourcePoint" />
            <mxPoint x="400" y="100" as="targetPoint" />
          </mxGeometry>
        </mxCell>
        <mxCell id="Dwi1AQAxIS6kbioLr0zU-52" value="1" style="endArrow=open;html=1;endSize=12;startArrow=diamondThin;startSize=14;startFill=1;edgeStyle=orthogonalEdgeStyle;align=left;verticalAlign=bottom;rounded=0;exitX=0;exitY=0.75;exitDx=0;exitDy=0;entryX=0.5;entryY=0;entryDx=0;entryDy=0;" edge="1" parent="WIyWlLk6GJQsqaUBKTNV-1" source="Dwi1AQAxIS6kbioLr0zU-33" target="Dwi1AQAxIS6kbioLr0zU-30">
          <mxGeometry x="-1" y="3" relative="1" as="geometry">
            <mxPoint x="720" y="200" as="sourcePoint" />
            <mxPoint x="880" y="200" as="targetPoint" />
          </mxGeometry>
        </mxCell>
        <mxCell id="Dwi1AQAxIS6kbioLr0zU-53" value="TimerListener" style="swimlane;fontStyle=1;align=center;verticalAlign=top;childLayout=stackLayout;horizontal=1;startSize=26;horizontalStack=0;resizeParent=1;resizeParentMax=0;resizeLast=0;collapsible=1;marginBottom=0;whiteSpace=wrap;html=1;" vertex="1" parent="WIyWlLk6GJQsqaUBKTNV-1">
          <mxGeometry x="1190" y="70" width="160" height="42" as="geometry" />
        </mxCell>
        <mxCell id="Dwi1AQAxIS6kbioLr0zU-94" value="" style="line;strokeWidth=1;fillColor=none;align=left;verticalAlign=middle;spacingTop=-1;spacingLeft=3;spacingRight=3;rotatable=0;labelPosition=right;points=[];portConstraint=eastwest;strokeColor=inherit;" vertex="1" parent="Dwi1AQAxIS6kbioLr0zU-53">
          <mxGeometry y="26" width="160" height="8" as="geometry" />
        </mxCell>
        <mxCell id="Dwi1AQAxIS6kbioLr0zU-55" value="" style="line;strokeWidth=1;fillColor=none;align=left;verticalAlign=middle;spacingTop=-1;spacingLeft=3;spacingRight=3;rotatable=0;labelPosition=right;points=[];portConstraint=eastwest;strokeColor=inherit;" vertex="1" parent="Dwi1AQAxIS6kbioLr0zU-53">
          <mxGeometry y="34" width="160" height="8" as="geometry" />
        </mxCell>
        <mxCell id="Dwi1AQAxIS6kbioLr0zU-58" value="Timer" style="swimlane;fontStyle=1;align=center;verticalAlign=top;childLayout=stackLayout;horizontal=1;startSize=26;horizontalStack=0;resizeParent=1;resizeParentMax=0;resizeLast=0;collapsible=1;marginBottom=0;whiteSpace=wrap;html=1;" vertex="1" parent="WIyWlLk6GJQsqaUBKTNV-1">
          <mxGeometry x="1190" y="-10" width="160" height="34" as="geometry" />
        </mxCell>
        <mxCell id="Dwi1AQAxIS6kbioLr0zU-60" value="" style="line;strokeWidth=1;fillColor=none;align=left;verticalAlign=middle;spacingTop=-1;spacingLeft=3;spacingRight=3;rotatable=0;labelPosition=right;points=[];portConstraint=eastwest;strokeColor=inherit;" vertex="1" parent="Dwi1AQAxIS6kbioLr0zU-58">
          <mxGeometry y="26" width="160" height="8" as="geometry" />
        </mxCell>
        <mxCell id="Dwi1AQAxIS6kbioLr0zU-66" value="«interface»&lt;br&gt;&lt;b&gt;Turbo&lt;/b&gt;" style="html=1;whiteSpace=wrap;" vertex="1" parent="WIyWlLk6GJQsqaUBKTNV-1">
          <mxGeometry x="10" y="114" width="110" height="50" as="geometry" />
        </mxCell>
        <mxCell id="Dwi1AQAxIS6kbioLr0zU-67" value="" style="endArrow=block;dashed=1;endFill=0;endSize=12;html=1;rounded=0;exitX=0.25;exitY=0;exitDx=0;exitDy=0;entryX=0.25;entryY=1;entryDx=0;entryDy=0;" edge="1" parent="WIyWlLk6GJQsqaUBKTNV-1" source="Dwi1AQAxIS6kbioLr0zU-6" target="Dwi1AQAxIS6kbioLr0zU-66">
          <mxGeometry width="160" relative="1" as="geometry">
            <mxPoint x="380" y="140" as="sourcePoint" />
            <mxPoint x="540" y="140" as="targetPoint" />
          </mxGeometry>
        </mxCell>
        <mxCell id="Dwi1AQAxIS6kbioLr0zU-68" value="«interface»&lt;br&gt;&lt;b&gt;Drawable&lt;/b&gt;" style="html=1;whiteSpace=wrap;" vertex="1" parent="WIyWlLk6GJQsqaUBKTNV-1">
          <mxGeometry x="520" y="40" width="110" height="50" as="geometry" />
        </mxCell>
        <mxCell id="Dwi1AQAxIS6kbioLr0zU-69" value="" style="endArrow=block;dashed=1;endFill=0;endSize=12;html=1;rounded=0;exitX=0.5;exitY=0;exitDx=0;exitDy=0;entryX=0;entryY=0.5;entryDx=0;entryDy=0;" edge="1" parent="WIyWlLk6GJQsqaUBKTNV-1" source="Dwi1AQAxIS6kbioLr0zU-0" target="Dwi1AQAxIS6kbioLr0zU-68">
          <mxGeometry width="160" relative="1" as="geometry">
            <mxPoint x="540" y="170" as="sourcePoint" />
            <mxPoint x="700" y="170" as="targetPoint" />
            <Array as="points">
              <mxPoint x="334" y="65" />
            </Array>
          </mxGeometry>
        </mxCell>
        <mxCell id="Dwi1AQAxIS6kbioLr0zU-70" value="" style="endArrow=block;dashed=1;endFill=0;endSize=12;html=1;rounded=0;entryX=1;entryY=0.5;entryDx=0;entryDy=0;exitX=0.25;exitY=0;exitDx=0;exitDy=0;" edge="1" parent="WIyWlLk6GJQsqaUBKTNV-1" source="Dwi1AQAxIS6kbioLr0zU-30" target="Dwi1AQAxIS6kbioLr0zU-68">
          <mxGeometry width="160" relative="1" as="geometry">
            <mxPoint x="690" y="170" as="sourcePoint" />
            <mxPoint x="850" y="170" as="targetPoint" />
            <Array as="points">
              <mxPoint x="850" y="65" />
            </Array>
          </mxGeometry>
        </mxCell>
        <mxCell id="Dwi1AQAxIS6kbioLr0zU-71" value="CarController" style="swimlane;fontStyle=1;align=center;verticalAlign=top;childLayout=stackLayout;horizontal=1;startSize=26;horizontalStack=0;resizeParent=1;resizeParentMax=0;resizeLast=0;collapsible=1;marginBottom=0;whiteSpace=wrap;html=1;" vertex="1" parent="WIyWlLk6GJQsqaUBKTNV-1">
          <mxGeometry x="1190" y="140" width="160" height="34" as="geometry" />
        </mxCell>
        <mxCell id="Dwi1AQAxIS6kbioLr0zU-72" value="" style="line;strokeWidth=1;fillColor=none;align=left;verticalAlign=middle;spacingTop=-1;spacingLeft=3;spacingRight=3;rotatable=0;labelPosition=right;points=[];portConstraint=eastwest;strokeColor=inherit;" vertex="1" parent="Dwi1AQAxIS6kbioLr0zU-71">
          <mxGeometry y="26" width="160" height="8" as="geometry" />
        </mxCell>
        <mxCell id="Dwi1AQAxIS6kbioLr0zU-76" value="«interface»&lt;br&gt;&lt;b&gt;Observer&lt;/b&gt;" style="html=1;whiteSpace=wrap;" vertex="1" parent="WIyWlLk6GJQsqaUBKTNV-1">
          <mxGeometry x="872" y="-210" width="110" height="50" as="geometry" />
        </mxCell>
        <mxCell id="Dwi1AQAxIS6kbioLr0zU-83" value="Observable" style="swimlane;fontStyle=1;align=center;verticalAlign=top;childLayout=stackLayout;horizontal=1;startSize=26;horizontalStack=0;resizeParent=1;resizeParentMax=0;resizeLast=0;collapsible=1;marginBottom=0;whiteSpace=wrap;html=1;" vertex="1" parent="WIyWlLk6GJQsqaUBKTNV-1">
          <mxGeometry x="827" y="-110" width="200" height="110" as="geometry" />
        </mxCell>
        <mxCell id="Dwi1AQAxIS6kbioLr0zU-84" value="- observers: ArrayList&amp;lt;Observer&amp;gt;" style="text;strokeColor=none;fillColor=none;align=left;verticalAlign=top;spacingLeft=4;spacingRight=4;overflow=hidden;rotatable=0;points=[[0,0.5],[1,0.5]];portConstraint=eastwest;whiteSpace=wrap;html=1;" vertex="1" parent="Dwi1AQAxIS6kbioLr0zU-83">
          <mxGeometry y="26" width="200" height="26" as="geometry" />
        </mxCell>
        <mxCell id="Dwi1AQAxIS6kbioLr0zU-85" value="" style="line;strokeWidth=1;fillColor=none;align=left;verticalAlign=middle;spacingTop=-1;spacingLeft=3;spacingRight=3;rotatable=0;labelPosition=right;points=[];portConstraint=eastwest;strokeColor=inherit;" vertex="1" parent="Dwi1AQAxIS6kbioLr0zU-83">
          <mxGeometry y="52" width="200" height="8" as="geometry" />
        </mxCell>
        <mxCell id="Dwi1AQAxIS6kbioLr0zU-86" value="+ addObserver(Observer): void&lt;div&gt;+ notifyObserver(): void&amp;nbsp;&lt;/div&gt;" style="text;strokeColor=none;fillColor=none;align=left;verticalAlign=top;spacingLeft=4;spacingRight=4;overflow=hidden;rotatable=0;points=[[0,0.5],[1,0.5]];portConstraint=eastwest;whiteSpace=wrap;html=1;" vertex="1" parent="Dwi1AQAxIS6kbioLr0zU-83">
          <mxGeometry y="60" width="200" height="50" as="geometry" />
        </mxCell>
        <mxCell id="Dwi1AQAxIS6kbioLr0zU-87" value="" style="endArrow=block;dashed=1;endFill=0;endSize=12;html=1;rounded=0;exitX=0.5;exitY=0;exitDx=0;exitDy=0;entryX=0.5;entryY=1;entryDx=0;entryDy=0;" edge="1" parent="WIyWlLk6GJQsqaUBKTNV-1" source="Dwi1AQAxIS6kbioLr0zU-83" target="Dwi1AQAxIS6kbioLr0zU-76">
          <mxGeometry width="160" relative="1" as="geometry">
            <mxPoint x="680" y="20" as="sourcePoint" />
            <mxPoint x="840" y="20" as="targetPoint" />
          </mxGeometry>
        </mxCell>
        <mxCell id="Dwi1AQAxIS6kbioLr0zU-91" value="1" style="endArrow=open;html=1;endSize=12;startArrow=diamondThin;startSize=14;startFill=1;edgeStyle=orthogonalEdgeStyle;align=left;verticalAlign=bottom;rounded=0;exitX=0.75;exitY=0;exitDx=0;exitDy=0;entryX=0;entryY=0.25;entryDx=0;entryDy=0;" edge="1" parent="WIyWlLk6GJQsqaUBKTNV-1" source="Dwi1AQAxIS6kbioLr0zU-33" target="Dwi1AQAxIS6kbioLr0zU-58">
          <mxGeometry x="-1" y="3" relative="1" as="geometry">
            <mxPoint x="960" y="70" as="sourcePoint" />
            <mxPoint x="1120" y="70" as="targetPoint" />
          </mxGeometry>
        </mxCell>
        <mxCell id="Dwi1AQAxIS6kbioLr0zU-95" value="1" style="endArrow=open;html=1;endSize=12;startArrow=diamondThin;startSize=14;startFill=1;edgeStyle=orthogonalEdgeStyle;align=left;verticalAlign=bottom;rounded=0;exitX=0.75;exitY=1;exitDx=0;exitDy=0;entryX=0.75;entryY=0;entryDx=0;entryDy=0;" edge="1" parent="WIyWlLk6GJQsqaUBKTNV-1" source="Dwi1AQAxIS6kbioLr0zU-58" target="Dwi1AQAxIS6kbioLr0zU-53">
          <mxGeometry x="-1" y="3" relative="1" as="geometry">
            <mxPoint x="970" y="100" as="sourcePoint" />
            <mxPoint x="1130" y="100" as="targetPoint" />
          </mxGeometry>
        </mxCell>
        <mxCell id="Dwi1AQAxIS6kbioLr0zU-96" value="" style="endArrow=open;startArrow=circlePlus;endFill=0;startFill=0;endSize=8;html=1;rounded=0;exitX=1;exitY=0.5;exitDx=0;exitDy=0;entryX=0;entryY=0.5;entryDx=0;entryDy=0;" edge="1" parent="WIyWlLk6GJQsqaUBKTNV-1" source="Dwi1AQAxIS6kbioLr0zU-33" target="Dwi1AQAxIS6kbioLr0zU-53">
          <mxGeometry width="160" relative="1" as="geometry">
            <mxPoint x="940" y="140" as="sourcePoint" />
            <mxPoint x="1100" y="140" as="targetPoint" />
            <Array as="points">
              <mxPoint x="1150" y="113" />
              <mxPoint x="1150" y="91" />
            </Array>
          </mxGeometry>
        </mxCell>
        <mxCell id="Dwi1AQAxIS6kbioLr0zU-97" value="1" style="endArrow=open;html=1;endSize=12;startArrow=diamondThin;startSize=14;startFill=1;edgeStyle=orthogonalEdgeStyle;align=left;verticalAlign=bottom;rounded=0;exitX=0.25;exitY=0;exitDx=0;exitDy=0;entryX=0.75;entryY=1;entryDx=0;entryDy=0;" edge="1" parent="WIyWlLk6GJQsqaUBKTNV-1" source="Dwi1AQAxIS6kbioLr0zU-33" target="Dwi1AQAxIS6kbioLr0zU-83">
          <mxGeometry x="-1" y="3" relative="1" as="geometry">
            <mxPoint x="900" y="50" as="sourcePoint" />
            <mxPoint x="1010" y="-10" as="targetPoint" />
          </mxGeometry>
        </mxCell>
        <mxCell id="Dwi1AQAxIS6kbioLr0zU-100" value="1" style="endArrow=open;html=1;endSize=12;startArrow=diamondThin;startSize=14;startFill=1;edgeStyle=orthogonalEdgeStyle;align=left;verticalAlign=bottom;rounded=0;entryX=0.75;entryY=1;entryDx=0;entryDy=0;exitX=0;exitY=0.5;exitDx=0;exitDy=0;" edge="1" parent="WIyWlLk6GJQsqaUBKTNV-1" source="Dwi1AQAxIS6kbioLr0zU-71" target="Dwi1AQAxIS6kbioLr0zU-33">
          <mxGeometry x="-1" y="3" relative="1" as="geometry">
            <mxPoint x="1110" y="70" as="sourcePoint" />
            <mxPoint x="1270" y="70" as="targetPoint" />
            <Array as="points">
              <mxPoint x="1053" y="157" />
            </Array>
          </mxGeometry>
        </mxCell>
        <mxCell id="Dwi1AQAxIS6kbioLr0zU-101" value="1" style="endArrow=open;html=1;endSize=12;startArrow=diamondThin;startSize=14;startFill=1;edgeStyle=orthogonalEdgeStyle;align=left;verticalAlign=bottom;rounded=0;exitX=0.5;exitY=0;exitDx=0;exitDy=0;entryX=0.5;entryY=1;entryDx=0;entryDy=0;" edge="1" parent="WIyWlLk6GJQsqaUBKTNV-1" source="Dwi1AQAxIS6kbioLr0zU-43" target="Dwi1AQAxIS6kbioLr0zU-33">
          <mxGeometry x="-1" y="3" relative="1" as="geometry">
            <mxPoint x="1010" y="110" as="sourcePoint" />
            <mxPoint x="1170" y="110" as="targetPoint" />
            <Array as="points">
              <mxPoint x="1070" y="200" />
              <mxPoint x="1015" y="200" />
            </Array>
          </mxGeometry>
        </mxCell>
        <mxCell id="Dwi1AQAxIS6kbioLr0zU-102" value="1" style="endArrow=open;html=1;endSize=12;startArrow=diamondThin;startSize=14;startFill=1;edgeStyle=orthogonalEdgeStyle;align=left;verticalAlign=bottom;rounded=0;entryX=0.25;entryY=1;entryDx=0;entryDy=0;exitX=0.5;exitY=0;exitDx=0;exitDy=0;" edge="1" parent="WIyWlLk6GJQsqaUBKTNV-1" source="Dwi1AQAxIS6kbioLr0zU-43" target="Dwi1AQAxIS6kbioLr0zU-71">
          <mxGeometry x="-1" y="3" relative="1" as="geometry">
            <mxPoint x="1080" y="210" as="sourcePoint" />
            <mxPoint x="1140" y="110" as="targetPoint" />
            <Array as="points">
              <mxPoint x="1070" y="200" />
              <mxPoint x="1230" y="200" />
            </Array>
          </mxGeometry>
        </mxCell>
      </root>
    </mxGraphModel>
  </diagram>
</mxfile>
